<svg width="24" height="24" viewBox="0 0 24 24" fill="none" xmlns="http://www.w3.org/2000/svg">
<g clip-path="url(#clip0)">
<path d="M1.50008 1.63231C-0.385923 3.59131 7.7188e-05 5.67231 7.7188e-05 11.9943C7.7188e-05 17.2443 -0.915923 22.5073 3.87808 23.7463C5.37508 24.1313 18.6391 24.1313 20.1341 23.7443C22.1301 23.2293 23.7541 21.6103 23.9761 18.7873C24.0071 18.3933 24.0071 5.60231 23.9751 5.20031C23.7391 2.19331 21.8881 0.460314 19.4491 0.109314C18.8901 0.028314 18.7781 0.00431398 15.9101 -0.000686023C5.73708 0.00431398 3.50708 -0.448686 1.50008 1.63231Z" fill="#1F160A"/>
<path d="M11.9981 3.13941C8.36706 3.13941 4.91906 2.81641 3.60206 6.19641C3.05806 7.59241 3.13706 9.40541 3.13706 12.0014C3.13706 14.2794 3.06406 16.4204 3.60206 17.8054C4.91606 21.1874 8.39206 20.8634 11.9961 20.8634C15.4731 20.8634 19.0581 21.2254 20.3911 17.8054C20.9361 16.3954 20.8561 14.6094 20.8561 12.0014C20.8561 8.53941 21.0471 6.30441 19.3681 4.62641C17.6681 2.92641 15.3691 3.13941 11.9941 3.13941H11.9981ZM11.2041 4.73641C18.7781 4.72441 19.7421 3.88241 19.2101 15.5794C19.0211 19.7164 15.8711 19.2624 11.9991 19.2624C4.93906 19.2624 4.73606 19.0604 4.73606 11.9974C4.73606 4.85241 5.29606 4.74041 11.2041 4.73441V4.73641ZM16.7281 6.20741C16.1411 6.20741 15.6651 6.68341 15.6651 7.27041C15.6651 7.85741 16.1411 8.33341 16.7281 8.33341C17.3151 8.33341 17.7911 7.85741 17.7911 7.27041C17.7911 6.68341 17.3151 6.20741 16.7281 6.20741ZM11.9981 7.45041C9.48506 7.45041 7.44806 9.48841 7.44806 12.0014C7.44806 14.5144 9.48506 16.5514 11.9981 16.5514C14.5111 16.5514 16.5471 14.5144 16.5471 12.0014C16.5471 9.48841 14.5111 7.45041 11.9981 7.45041ZM11.9981 9.04741C15.9031 9.04741 15.9081 14.9554 11.9981 14.9554C8.09406 14.9554 8.08806 9.04741 11.9981 9.04741Z" fill="#F6C37D"/>
</g>
<defs>
<clipPath id="clip0">
<rect width="24" height="24" fill="white"/>
</clipPath>
</defs>
</svg>
