<svg width="25" height="25" viewBox="0 0 25 25" fill="none" xmlns="http://www.w3.org/2000/svg">
<g clip-path="url(#clip0)">
<path d="M23.809 15.0474C25.547 7.23737 18.705 0.142374 10.67 1.50437C6.308 -1.20263 0.5 1.85637 0.5 7.04637C0.5 8.25337 0.833 9.38338 1.412 10.3574C-0.203 18.1854 6.695 25.1784 14.723 23.7234C20.398 26.7244 26.669 20.7394 23.809 15.0474ZM16.171 19.7574C14.063 20.6244 10.594 20.6294 8.495 19.5304C5.502 17.9344 4.97 14.3414 7.552 14.3414C9.498 14.3414 8.882 16.6104 10.847 17.5354C11.749 17.9524 13.688 17.9954 14.815 17.2354C15.928 16.4904 15.826 15.3184 15.221 14.7584C13.618 13.2784 9.031 13.8664 6.934 11.2754C6.023 10.1514 5.851 8.16837 6.971 6.73037C8.923 4.21837 14.651 4.06537 17.114 5.96237C19.388 7.72237 18.774 10.0584 16.939 10.0584C14.732 10.0584 15.892 7.17037 12.329 7.17037C9.746 7.17037 8.73 9.00737 10.549 9.90137C13.015 11.1264 19.299 10.7174 19.299 15.5044C19.294 17.4964 18.073 18.9814 16.171 19.7574Z" fill="#F6C37D"/>
</g>
<defs>
<clipPath id="clip0">
<rect width="24" height="24" fill="white" transform="translate(0.5 0.5)"/>
</clipPath>
</defs>
</svg>
