<svg width="25" height="25" viewBox="0 0 25 25" fill="none" xmlns="http://www.w3.org/2000/svg">
<g clip-path="url(#clip0)">
<path d="M14.9003 0.5H10.0997C5.46727 0.5 1.69861 4.26866 1.69861 8.90108V12.5015C1.69861 15.7538 3.57427 18.7052 6.49922 20.0935V24.103C6.49922 24.4512 6.93473 24.6332 7.18214 24.3859L10.6654 20.9026H14.9003C19.5326 20.9026 23.3013 17.134 23.3013 12.5015V8.90108C23.3013 4.26866 19.5326 0.5 14.9003 0.5Z" fill="#F6C37D"/>
<path d="M18.5398 15.4116L18.1801 13.4631C18.1503 13.3022 18.0256 13.1756 17.8651 13.1435L15.0364 12.5777C14.905 12.5516 14.7696 12.5926 14.675 12.6871L13.5257 13.8364C11.5894 12.9688 10.5148 11.8918 9.5692 9.87238L10.7147 8.7269C10.8093 8.6323 10.8503 8.49665 10.8241 8.36549L10.2584 5.53668C10.2263 5.37622 10.0997 5.25144 9.93872 5.22172L7.99031 4.8621C7.93697 4.8523 7.88203 4.85333 7.82906 4.86538C7.31461 4.98224 6.8452 5.24146 6.47156 5.61519C5.8246 6.26216 5.57733 7.20622 5.75658 8.34533C6.05747 10.2581 6.9946 12.9201 8.72358 14.656L8.7472 14.6794C10.4818 16.4072 13.1438 17.3444 15.0566 17.6453C15.2976 17.6833 15.5297 17.7021 15.7523 17.7021C16.5817 17.7021 17.2766 17.4404 17.7869 16.9303C18.1605 16.5566 18.4198 16.0872 18.5366 15.5728C18.5485 15.5198 18.5496 15.465 18.5398 15.4116Z" fill="#1F160A"/>
<path d="M13.3002 7.29883C13.0793 7.29883 12.9001 7.47794 12.9001 7.69886C12.9001 7.91978 13.0793 8.09889 13.3002 8.09889C14.1826 8.09889 14.9004 8.81673 14.9004 9.69911C14.9004 9.91708 15.0825 10.0991 15.3004 10.0991C15.5184 10.0991 15.7005 9.91708 15.7005 9.69911C15.7005 8.37555 14.6237 7.29883 13.3002 7.29883Z" fill="#1F160A"/>
<path d="M13.3 5.69922C13.1521 5.69922 13.0027 5.70742 12.8561 5.72359C12.6365 5.74783 12.4781 5.9455 12.5023 6.16516C12.5266 6.38481 12.7247 6.54278 12.9439 6.51892C13.0615 6.50594 13.1813 6.49933 13.3 6.49933C15.0647 6.49933 16.5004 7.93502 16.5004 9.69972C16.5004 9.81855 16.4938 9.93836 16.4808 10.0559C16.4569 10.2725 16.6179 10.4736 16.8346 10.4975C17.0513 10.5213 17.2522 10.3604 17.2762 10.1437C17.2923 9.99709 17.3005 9.84775 17.3005 9.69972C17.3005 7.49388 15.5059 5.69922 13.3 5.69922Z" fill="#1F160A"/>
<path d="M13.3005 4.09961C13.1575 4.09961 13.0127 4.10505 12.8702 4.11588C12.6499 4.13256 12.4848 4.32475 12.5015 4.54502C12.5182 4.76533 12.711 4.93042 12.9307 4.91373C13.0532 4.90441 13.1776 4.89972 13.3005 4.89972C15.9476 4.89972 18.1011 7.05325 18.1011 9.70033C18.1011 10.0749 18.0579 10.4477 17.9727 10.8085C17.9238 11.0152 18.0511 11.23 18.2561 11.2862C18.4718 11.3453 18.7 11.21 18.7513 10.9925C18.8508 10.5715 18.9012 10.1368 18.9012 9.70033C18.9012 6.61206 16.3888 4.09961 13.3005 4.09961Z" fill="#1F160A"/>
</g>
<defs>
<clipPath id="clip0">
<rect width="24" height="24" fill="white" transform="translate(0.5 0.5)"/>
</clipPath>
</defs>
</svg>
