<svg width="24" height="24" viewBox="0 0 24 24" fill="none" xmlns="http://www.w3.org/2000/svg">
<path d="M19.915 12.694C19.527 12.204 19.638 11.986 19.915 11.548C19.92 11.543 23.123 7.11702 23.453 5.61602L23.455 5.61502C23.619 5.06802 23.455 4.66602 22.662 4.66602H20.038C19.37 4.66602 19.062 5.01102 18.897 5.39702C18.897 5.39702 17.561 8.59502 15.671 10.668C15.061 11.267 14.779 11.459 14.446 11.459C14.282 11.459 14.027 11.267 14.027 10.72V5.61502C14.027 4.95902 13.84 4.66602 13.287 4.66602H9.161C8.742 4.66602 8.493 4.97202 8.493 5.25702C8.493 5.87902 9.438 6.02202 9.536 7.77202V11.569C9.536 12.401 9.385 12.554 9.05 12.554C8.158 12.554 5.993 9.34302 4.71 5.66802C4.451 4.95502 4.198 4.66702 3.525 4.66702H0.9C0.151 4.66702 0 5.01202 0 5.39802C0 6.08002 0.892 9.47102 4.148 13.951C6.318 17.009 9.374 18.666 12.154 18.666C13.825 18.666 14.029 18.298 14.029 17.665C14.029 14.743 13.878 14.467 14.715 14.467C15.103 14.467 15.771 14.659 17.331 16.134C19.114 17.883 19.407 18.666 20.405 18.666H23.029C23.777 18.666 24.156 18.298 23.938 17.572C23.439 16.045 20.067 12.904 19.915 12.694Z" fill="#1F160A"/>
</svg>
