<svg width="25" height="25" viewBox="0 0 25 25" fill="none" xmlns="http://www.w3.org/2000/svg">
<g clip-path="url(#clip0)">
<path d="M12.503 0.5H12.497C5.8805 0.5 0.5 5.882 0.5 12.5C0.5 15.125 1.346 17.558 2.7845 19.5335L1.289 23.9915L5.9015 22.517C7.799 23.774 10.0625 24.5 12.503 24.5C19.1195 24.5 24.5 19.1165 24.5 12.5C24.5 5.8835 19.1195 0.5 12.503 0.5ZM19.4855 17.4455C19.196 18.263 18.047 18.941 17.1305 19.139C16.5035 19.2725 15.6845 19.379 12.9275 18.236C9.401 16.775 7.13 13.1915 6.953 12.959C6.7835 12.7265 5.528 11.0615 5.528 9.3395C5.528 7.6175 6.4025 6.779 6.755 6.419C7.0445 6.1235 7.523 5.9885 7.982 5.9885C8.1305 5.9885 8.264 5.996 8.384 6.002C8.7365 6.017 8.9135 6.038 9.146 6.5945C9.4355 7.292 10.1405 9.014 10.2245 9.191C10.31 9.368 10.3955 9.608 10.2755 9.8405C10.163 10.0805 10.064 10.187 9.887 10.391C9.71 10.595 9.542 10.751 9.365 10.97C9.203 11.1605 9.02 11.3645 9.224 11.717C9.428 12.062 10.133 13.2125 11.171 14.1365C12.5105 15.329 13.5965 15.71 13.985 15.872C14.2745 15.992 14.6195 15.9635 14.831 15.7385C15.0995 15.449 15.431 14.969 15.7685 14.4965C16.0085 14.1575 16.3115 14.1155 16.6295 14.2355C16.9535 14.348 18.668 15.1955 19.0205 15.371C19.373 15.548 19.6055 15.632 19.691 15.7805C19.775 15.929 19.775 16.6265 19.4855 17.4455Z" fill="#F6C37D"/>
</g>
<defs>
<clipPath id="clip0">
<rect width="24" height="24" fill="white" transform="translate(0.5 0.5)"/>
</clipPath>
</defs>
</svg>
