<svg width="24" height="24" viewBox="0 0 24 24" fill="none" xmlns="http://www.w3.org/2000/svg">
<g clip-path="url(#clip0)">
<path d="M0.521952 17.8751C1.01195 19.6131 2.51095 19.9311 2.61095 19.9921C5.07795 20.6641 18.906 20.6661 21.41 19.9921C23.125 19.4961 23.44 17.9751 23.499 17.8751C24.152 14.4011 24.195 9.87208 23.469 5.93007L23.499 6.12608C23.009 4.38807 21.51 4.07007 21.41 4.00907C18.976 3.34807 5.11195 3.32307 2.61095 4.00907C0.895952 4.50607 0.580952 6.02608 0.521952 6.12608C-0.177048 9.77708 -0.212048 13.9661 0.521952 17.8751ZM9.60795 15.6521V8.35908L15.874 12.0111L9.60795 15.6521Z" fill="#1F160A"/>
</g>
<defs>
<clipPath id="clip0">
<rect width="24" height="24" fill="white"/>
</clipPath>
</defs>
</svg>
